<?xml version="1.0" encoding="utf-8"?>
<!-- Generator: Adobe Illustrator 17.0.0, SVG Export Plug-In . SVG Version: 6.00 Build 0)  -->
<!DOCTYPE svg PUBLIC "-//W3C//DTD SVG 1.1//EN" "http://www.w3.org/Graphics/SVG/1.1/DTD/svg11.dtd">
<svg version="1.1" id="Layer_1" xmlns="http://www.w3.org/2000/svg" xmlns:xlink="http://www.w3.org/1999/xlink" x="0px" y="0px"
	 width="846.965px" height="175.266px" viewBox="0 0 846.965 175.266" enable-background="new 0 0 846.965 175.266"
	 xml:space="preserve">
<g>
	<g>
		<path fill="#FFFFFF" d="M67.173,158.216c-2.387,0-4.347,0.823-5.882,2.473c-1.534,1.646-2.302,3.606-2.302,5.882
			c0,2.387,0.768,4.433,2.302,6.138c1.535,1.705,3.495,2.558,5.882,2.558c2.387,0,4.318-0.853,5.797-2.558
			c1.476-1.705,2.216-3.751,2.216-6.138c0-2.275-0.74-4.235-2.216-5.882C71.492,159.039,69.561,158.216,67.173,158.216z"/>
		<path fill="#FFFFFF" d="M64.275,148.328c0-2.616-0.882-4.889-2.643-6.82c-1.764-1.934-3.951-2.898-6.564-2.898
			c-2.616,0-4.803,0.965-6.564,2.898c-1.764,1.932-2.643,4.204-2.643,6.82c0,2.728,0.879,5.029,2.643,6.904
			c1.761,1.876,3.948,2.813,6.564,2.813c2.613,0,4.8-0.938,6.564-2.813C63.394,153.357,64.275,151.056,64.275,148.328z"/>
		<path fill="#FFFFFF" d="M78.426,138.78c-2.616,0-4.832,0.938-6.649,2.813c-1.819,1.876-2.728,4.119-2.728,6.735
			c0,2.728,0.909,5.056,2.728,6.989c1.817,1.932,4.033,2.898,6.649,2.898c2.614,0,4.774-0.967,6.479-2.898
			c1.705-1.934,2.557-4.262,2.557-6.989c0-2.616-0.852-4.859-2.557-6.735C83.2,139.718,81.04,138.78,78.426,138.78z"/>
		<path fill="#FFFFFF" d="M217.818,65.85c-1.534-5.046-3.647-9.186-6.487-12.419c-2.842-3.234-6.243-5.616-10.276-7.147
			c-4.036-1.529-8.535-2.297-13.535-2.297c-5.797,0-11.046,0.911-15.761,2.729c-4.718,1.819-8.775,4.547-12.185,8.184
			c-3.41,3.639-6.05,8.213-7.926,13.725c-1.875,5.514-2.812,12.02-2.812,19.521c0,4.547-0.484,8.327-1.449,11.337
			c-0.967,3.014-2.245,5.4-3.836,7.161c-1.593,1.764-3.41,2.848-5.455,3.529c-2.046,0.683-4.151,0.888-6.308,0.888h-2.044h-3.412
			h-16.367v-65h-15v65H67.064c-10.208,0-18.603-0.831-25.18-2.771c-6.58-1.937-11.769-4.605-15.568-8.137s-6.436-7.656-7.909-12.444
			c-1.476-4.785-2.211-10.069-2.211-15.881c0-4.784,0.325-9.193,0.98-13.24c0.653-4.044,1.633-8.227,2.941-12.559L3.41,49.44
			c-0.911,3.639-1.705,7.702-2.387,12.191C0.341,66.123,0,70.186,0,73.823c0,7.73,1.164,14.721,3.495,20.97
			c2.328,6.253,6.023,11.594,11.082,16.027c5.056,4.433,11.649,8.002,19.777,10.444c8.125,2.446,17.987,3.796,29.58,3.796h62.398
			h3.239h0.394v-0.264c7-0.025,12.338-1.525,16.34-4.513c4.033-3.011,6.791-6.905,8.384-11.679
			c2.728,4.773,6.733,8.798,12.077,11.809c5.341,3.013,12.815,4.647,22.477,4.647h30.721V83.967
			C219.965,76.937,219.352,70.897,217.818,65.85z M204.965,111.06h-12.823c-9.321,0-16.17-2.115-20.544-6.62
			c-4.377-4.502-6.564-11.589-6.564-21.395c0-3.762,0.368-7.207,1.108-10.399c0.738-3.191,1.932-5.968,3.581-8.364
			c1.646-2.392,3.751-4.264,6.308-5.633c2.558-1.369,5.653-2.049,9.292-2.049c3.181,0,5.994,0.63,8.439,1.883
			c2.442,1.254,4.488,2.995,6.138,5.217c1.646,2.224,2.916,4.819,3.769,7.785c0.853,2.965,1.297,6.1,1.297,9.404V111.06z"/>
	</g>
	<path fill="#FFFFFF" d="M235.105,167.423c-2.957,0-5.909-0.171-8.866-0.512l1.705-15.344c2.614,0.341,5.115,0.511,7.502,0.511
		c8.069,0,13.922-2.075,17.561-6.223c3.636-4.15,5.456-10.655,5.456-19.521v-79.96h15.344v79.107c0,6.138-0.597,11.765-1.79,16.879
		c-1.193,5.115-3.269,9.519-6.223,13.213c-2.957,3.692-6.905,6.591-11.85,8.695C249,166.37,242.718,167.423,235.105,167.423z"/>
	<path fill="#FFFFFF" d="M319.326,124.8h-15.344V0h15.344V124.8z"/>
	<g>
		<path fill="#FFFFFF" d="M432.019,138.609c-2.957,0-5.399,1.05-7.331,3.154c-1.935,2.102-2.898,4.63-2.898,7.587
			c0,2.954,0.964,5.482,2.898,7.587c1.932,2.102,4.374,3.154,7.331,3.154c2.954,0,5.397-1.053,7.331-3.154
			c1.932-2.104,2.898-4.633,2.898-7.587c0-2.957-0.967-5.485-2.898-7.587C437.417,139.659,434.973,138.609,432.019,138.609z"/>
		<path fill="#FFFFFF" d="M458.104,138.78c-2.957,0-5.429,1.022-7.416,3.068c-1.99,2.046-2.983,4.545-2.983,7.502
			c0,2.954,0.993,5.512,2.983,7.672c1.987,2.158,4.459,3.239,7.416,3.239c2.954,0,5.371-1.081,7.246-3.239
			c1.875-2.16,2.813-4.718,2.813-7.672c0-2.957-0.938-5.456-2.813-7.502S461.058,138.78,458.104,138.78z"/>
		<path fill="#FFFFFF" d="M608.294,56.262c-0.512-7.046-1.175-13.184-2.083-18.413l-15.661,2.907
			c0.908,5.583,1.764,11.679,2.39,18.285c0.623,6.606,1.026,14.012,1.026,22.214v29.805h-16.008c-4.321,0-8.008-1.028-10.735-3.359
			c-2.729-2.328-4.257-5.461-4.257-9.668V46.06h-15v34.412c0,11.708-1.429,19.978-4.269,24.807
			c-2.843,4.833-7.052,7.246-12.621,7.246c-4.773,0-8.351-1.62-11.135-4.859c-2.787-3.239-3.975-8.78-3.975-16.623V46.06h-16v38.504
			c0,8.754-1.695,15.268-5.332,19.813c-3.639,4.547-8.4,6.684-14.538,6.684h-2.726h-3.412h-15.992v-65h-15v65h-17.765h-6.821
			h-12.414v-4.343c0-9.113-1.493-17.345-4.277-24.694c-2.786-7.348-6.785-13.842-11.899-19.481
			c-5.115-5.64-11.278-10.368-18.438-14.186c-7.161-3.817-15.075-6.639-23.712-8.461l-1.54,16.237
			c15.229,4.329,26.424,10.743,33.584,19.516c7.161,8.775,10.738,20.412,10.738,35.412h-54.455v14h82.414h6.821h48.757h3.412h4.431
			c4.203,0,8.41-1.18,12.616-3.284c4.204-2.102,7.613-5.662,10.229-10.55c1.932,5.115,4.971,8.919,9.121,11.476
			c4.148,2.557,8.495,3.82,13.043,3.82c7.16,0,12.813-1.402,16.964-4.185c4.147-2.784,7.246-6.569,9.292-11.342
			c1.816,4.662,4.603,8.255,8.354,10.527c3.751,2.275,8.866,3.538,15.345,3.538h32.201V78.085
			C608.965,70.583,608.806,63.311,608.294,56.262z"/>
	</g>
</g>
<g>
	<path fill="#FCB915" d="M846.965,43.845V28.388c0-15.591-12.955-28.329-28.546-28.329h-32.116l25.22,60.408L846.965,43.845z"/>
	<path fill="#7764AB" d="M682.37,137.439c0.61,13.183,10.334,24.085,22.979,26.518l23.97-48.588L682.37,137.439z"/>
	<polygon fill="#AC519E" points="681.965,81.904 681.965,121.14 725.267,100.785 	"/>
	<path fill="#59A746" d="M794.235,114.587l52.597,22.89c0.021-0.448,0.134-0.898,0.134-1.352V60.16L810.01,77.485L794.235,114.587z"
		/>
	<polygon fill="#F26E49" points="798.048,66.755 770.313,0.06 742.427,0.06 745.664,91.384 	"/>
	<polygon fill="#2F4858" points="748.138,110.389 721.56,164.06 757.13,164.06 774.952,121.978 	"/>
	<polygon points="780.699,108.685 789.909,86.888 761.421,100.279 	"/>
	<path fill="#EC278C" d="M727.652,0.06h-16.969c-15.591,0-28.718,12.738-28.718,28.329v37.408l48.58,21.11L727.652,0.06z"/>
	<path fill="#006CAC" d="M773.159,164.06h45.261c9.898,0,18.647-4.939,23.721-12.683l-53.653-23.497L773.159,164.06z"/>
</g>
</svg>
